<svg width="25" height="25" fill="none" xmlns="http://www.w3.org/2000/svg">
    <g clip-path="url(#a)">
        <path d="M21.058 3.111a1 1 0 0 1 1 1v14a1 1 0 0 1-1 1H6.513l-4.455 3.5v-18.5a1 1 0 0 1 1-1h18Zm-1 2h-16v13.385l1.763-1.385h14.237v-12Zm-9.485 2.412.447.688c-1.668.903-1.639 2.352-1.639 2.664.155-.02.318-.024.48-.009a1.761 1.761 0 0 1 1.614 1.745 1.75 1.75 0 0 1-1.75 1.75c-.538 0-1.05-.245-1.375-.59-.515-.546-.792-1.16-.792-2.155 0-1.75 1.228-3.318 3.015-4.093Zm5 0 .447.688c-1.668.903-1.638 2.352-1.638 2.664.155-.02.318-.024.48-.009a1.761 1.761 0 0 1 1.612 1.745 1.75 1.75 0 0 1-1.75 1.75c-.537 0-1.05-.245-1.373-.59-.516-.546-.793-1.16-.793-2.155 0-1.75 1.229-3.318 3.015-4.093Z" fill="#000"/>
    </g>
    <defs>
        <clipPath id="a">
            <path fill="#fff" transform="translate(.058 .111)" d="M0 0h24v24H0z"/>
        </clipPath>
    </defs>
</svg>
