<svg width="25" height="25" fill="none" xmlns="http://www.w3.org/2000/svg">
    <g clip-path="url(#a)">
        <path d="M19.058 7.608h5v2h-5v-2Zm-2 5h7v2h-7v-2Zm3 5h4v2h-4v-2Zm-18 5a8 8 0 1 1 16 0h-2a6 6 0 0 0-12 0h-2Zm8-9c-3.315 0-6-2.685-6-6s2.685-6 6-6c3.316 0 6 2.685 6 6s-2.684 6-6 6Zm0-2c2.21 0 4-1.79 4-4s-1.79-4-4-4-4 1.79-4 4 1.79 4 4 4Z" fill="#000"/>
    </g>
    <defs>
        <clipPath id="a">
            <path fill="#fff" transform="translate(.058 .608)" d="M0 0h24v24H0z"/>
        </clipPath>
    </defs>
</svg>
