<svg width="22" height="20" viewBox="0 0 22 20" fill="none" xmlns="http://www.w3.org/2000/svg">
<path fill-rule="evenodd" clip-rule="evenodd" d="M17.5997 1.42874H11.7332V0.714371C11.7332 0.320142 11.4047 0 10.9998 0C10.5951 0 10.2666 0.320132 10.2666 0.714371V1.42874H4.4001V0.714371C4.4001 0.320142 4.07142 0 3.66667 0C3.26193 0 2.93325 0.320132 2.93325 0.714371V1.42874H1.61333C1.18575 1.42874 0.775006 1.59446 0.472292 1.88858C0.170138 2.18364 0 2.58369 0 3.00017V18.4286C0 18.845 0.170143 19.2451 0.472292 19.5402C0.775026 19.8343 1.18574 20 1.61333 20H20.3867C20.8143 20 21.2248 19.8343 21.5277 19.5402C21.8299 19.2451 22 18.8451 22 18.4286V3.00017C22 2.5837 21.8299 2.18362 21.5277 1.88858C21.2248 1.59446 20.8143 1.42874 20.3867 1.42874H19.0665V0.714371C19.0665 0.320142 18.7381 0 18.3333 0C17.9286 0 17.5999 0.320132 17.5999 0.714371L17.5997 1.42874ZM20.5331 5.71434V18.4288C20.5331 18.4667 20.5177 18.5031 20.4898 18.5297C20.4627 18.5568 20.4253 18.5717 20.3864 18.5717H1.61309C1.57418 18.5717 1.53682 18.5568 1.50953 18.5297C1.48185 18.5031 1.46637 18.4667 1.46637 18.4288V5.71434H20.5331Z" fill="white"/>
<path fill-rule="evenodd" clip-rule="evenodd" d="M9.77098 8.5577C9.54518 8.94043 9.31453 9.33023 9.16085 9.59166C9.12589 9.65058 9.06862 9.69222 9.00246 9.70714C8.708 9.77439 8.26874 9.87431 7.8371 9.97203C7.34526 10.0839 6.94794 10.4487 6.79254 10.9315C6.63634 11.4142 6.74463 11.9446 7.07748 12.3262C7.36945 12.6607 7.66624 13.0018 7.86554 13.2298C7.91048 13.2815 7.93232 13.3493 7.92577 13.4172C7.89799 13.7196 7.85664 14.1714 7.81591 14.6149C7.76972 15.1208 7.99146 15.6136 8.39935 15.9118C8.80726 16.2107 9.34173 16.2702 9.80472 16.0696C10.2114 15.8941 10.6252 15.7143 10.9025 15.5946C10.9646 15.5673 11.0356 15.5673 11.0976 15.5946C11.3748 15.7143 11.7887 15.8941 12.1955 16.0696C12.6585 16.2702 13.1928 16.2107 13.6009 15.9118C14.0088 15.6136 14.2305 15.1208 14.1843 14.6149C14.1436 14.1714 14.1021 13.7196 14.0743 13.4172C14.0679 13.3493 14.0897 13.2815 14.1347 13.2298C14.3339 13.0018 14.6306 12.6607 14.9227 12.3262C15.2556 11.9446 15.3637 11.4142 15.2077 10.9315C15.0522 10.4487 14.6549 10.0839 14.1631 9.97203C13.7315 9.87431 13.2922 9.77438 12.9977 9.70714C12.9316 9.69222 12.8742 9.65058 12.8394 9.59166C12.6856 9.33023 12.455 8.94045 12.2292 8.5577C11.9714 8.12078 11.5044 7.85352 11 7.85352C10.4958 7.85352 10.0288 8.12076 9.77099 8.5577H9.77098Z" fill="white"/>
</svg>
