<svg width="24" height="24" viewBox="0 0 24 24" fill="none" xmlns="http://www.w3.org/2000/svg">
<path d="M12 0C8.8174 0 5.76516 1.26428 3.51472 3.51472C1.26428 5.76516 0 8.8174 0 12C0 15.1826 1.26428 18.2348 3.51472 20.4853C5.76516 22.7357 8.8174 24 12 24C15.1826 24 18.2348 22.7357 20.4853 20.4853C22.7357 18.2348 24 15.1826 24 12C24 8.8174 22.7357 5.76516 20.4853 3.51472C18.2348 1.26428 15.1826 0 12 0Z" fill="#3F51B5"/>
<path d="M15.2207 11.9999H13.1999V19.1999H10.1999V11.9999H8.3999V9.59993H10.1999V8.15393C10.2011 6.04913 11.0753 4.79993 13.5551 4.79993H15.5999V7.19993H14.2277C13.2623 7.19993 13.1999 7.55993 13.1999 8.23373V9.59993H15.5999L15.2207 11.9999Z" fill="white"/>
</svg>
