<svg width="27" height="35" viewBox="0 0 27 35" fill="none" xmlns="http://www.w3.org/2000/svg">
<path d="M13.4987 0C6.04451 0 0 6.14214 0 13.7192C0 21.2951 10.9467 34.9412 13.4987 34.9412C16.0524 34.9412 27 21.2947 27 13.7192C26.9997 6.14223 20.9551 0 13.4987 0ZM21.496 10.4858C21.3697 10.6791 21.1617 10.7837 20.9489 10.7837C20.8253 10.7837 20.6987 10.7475 20.588 10.6736L20.2664 10.457V18.322C20.2664 18.6901 19.9742 18.9881 19.6096 18.9881H15.6211C15.2602 18.9881 14.9656 18.6911 14.9656 18.322V12.7307H12.0319V18.322C12.0319 18.6901 11.7396 18.9881 11.3764 18.9881L7.39018 18.9884C7.02657 18.9884 6.73468 18.6915 6.73468 18.3224V10.4564L6.4108 10.674C6.10982 10.8762 5.70279 10.792 5.50247 10.4848C5.30349 10.1776 5.38396 9.76433 5.6873 9.56181L13.1374 4.55477C13.357 4.40835 13.6425 4.40835 13.8606 4.55477L21.3108 9.56181C21.6121 9.76673 21.6949 10.1786 21.4959 10.4858L21.496 10.4858Z" fill="white"/>
</svg>
