<svg width="173" height="150" viewBox="0 0 173 150" fill="none" xmlns="http://www.w3.org/2000/svg">
<path fill-rule="evenodd" clip-rule="evenodd" d="M85.1994 0.0511655C84.1711 0.374932 81.8513 1.55097 78.4314 3.47928C74.7819 5.54091 74.074 5.92657 73.5096 6.1694C73.1939 6.30748 72.3281 6.72171 71.5963 7.08832C70.0179 7.86917 69.3483 7.91202 68.4586 7.30258C68.2322 7.12535 67.9786 6.98549 67.7076 6.88835C66.3967 6.31606 65.1192 5.67068 63.8812 4.95527C63.4029 4.68388 62.7237 4.34583 62.4128 4.20299C62.179 4.10818 61.9587 3.98333 61.7575 3.83161C61.1348 3.34168 60.4575 2.92471 59.739 2.58892C59.4377 2.44608 58.8972 2.16517 58.5384 1.96044C55.9556 0.489203 55.6399 0.432067 55.1281 1.39384C54.975 1.68428 54.5159 2.51274 54.1141 3.22693C53.7123 3.94112 53.2962 4.69817 53.1909 4.9029C52.8896 5.48854 53.1909 6.07417 54.0376 6.53125L56.0847 7.64063C56.8022 8.03582 57.6488 8.47385 57.9645 8.61669C58.198 8.71399 58.4182 8.84038 58.6198 8.99283C58.8471 9.16981 59.0943 9.31999 59.3564 9.44039L62.4606 11.0211C63.8094 11.7068 64.9956 12.3352 65.0961 12.4114C65.3605 12.5838 65.6335 12.7427 65.914 12.8876C66.2632 13.0732 66.8419 13.4065 67.2054 13.6208C67.5689 13.835 68.0807 14.1255 68.3486 14.2636C68.6164 14.4016 69.4296 14.8444 70.147 15.2539C70.8645 15.6634 71.6394 16.0776 71.8642 16.2062L73.2417 16.8299C73.8766 17.1183 74.4904 17.4508 75.0784 17.825C75.476 18.1022 75.9066 18.3293 76.3603 18.5011C76.6852 18.5999 76.9945 18.7442 77.2786 18.9296L78.2353 19.5724C78.4245 19.7143 78.6363 19.8238 78.8618 19.8961C79.0819 19.8961 79.5506 20.4627 79.5506 20.7294C79.5506 21.0912 78.5414 21.6816 74.5044 23.729C72.9452 24.5146 71.3619 25.3668 70.9889 25.6335C70.7286 25.836 70.4381 25.9966 70.1279 26.1096C69.9086 26.1726 69.706 26.2832 69.5348 26.4334C69.0384 26.7733 68.519 27.0787 67.9803 27.3475C67.3633 27.6713 66.4162 28.195 65.8757 28.5093C65.0578 28.9854 61.5709 30.8328 59.6577 31.7803C59.3986 31.9062 59.152 32.056 58.9211 32.2278C58.7214 32.3687 58.5001 32.4765 58.2658 32.5468C58.0316 32.6182 57.8115 32.7293 57.6153 32.8754C57.167 33.1696 56.7023 33.4383 56.2234 33.68C53.9849 34.8608 52.947 35.4226 52.5452 35.6798C52.3204 35.8274 51.3638 36.3416 50.4215 36.8225C49.4793 37.3033 48.6231 37.7747 48.5083 37.8414C48.3935 37.908 47.5517 38.3984 46.5472 38.9031C45.817 39.2615 45.1094 39.6638 44.4283 40.1077C43.0986 41.26 43.0364 41.0171 43.0364 34.8703C43.0364 29.0711 43.0699 28.833 43.9069 28.5426C44.1766 28.4477 44.4311 28.3146 44.6627 28.1474C44.9413 27.9582 45.2479 27.8136 45.5715 27.7189C45.8303 27.6505 46.0782 27.5463 46.3081 27.4094C46.4528 27.2879 46.6138 27.187 46.7864 27.1095C47.0115 26.9996 47.2303 26.8772 47.4417 26.7428C47.7048 26.5869 47.978 26.4485 48.2596 26.3286C48.5753 26.1953 49.2162 25.8811 49.6467 25.6382L51.5312 24.6098C52.1147 24.286 52.9661 23.8004 53.411 23.5195C53.8411 23.2494 54.285 23.0015 54.7407 22.7767C54.9703 22.6868 55.1787 22.5507 55.3529 22.3768C55.5457 22.2257 55.7782 22.1331 56.0225 22.1101C56.6034 21.9131 57.164 21.6612 57.6966 21.3578C58.328 21.0055 59.0502 20.6437 59.299 20.5484C59.5477 20.4532 59.7486 20.3104 59.7486 20.2247C59.7492 20.2053 59.7536 20.1862 59.7617 20.1685C59.7697 20.1509 59.7811 20.1349 59.7954 20.1217C59.8096 20.1084 59.8263 20.0981 59.8445 20.0912C59.8628 20.0844 59.8822 20.0812 59.9016 20.0818C60.4998 19.917 61.0657 19.653 61.5757 19.301C61.9966 19.0582 62.6424 18.6915 63.0107 18.4868C63.5846 18.1678 64.1921 17.4012 63.9673 17.2679L63.135 16.7013C62.8586 16.4884 62.5565 16.3109 62.2358 16.1728C61.8734 16.0207 61.5299 15.8274 61.2122 15.5967C60.093 14.8635 58.7346 14.2207 58.2993 14.2207C57.9453 14.2207 55.793 15.3586 55.2333 15.8443C54.9511 16.0871 54.3867 16.3966 52.043 17.5726C51.8182 17.6869 50.8616 18.1488 49.9193 18.6011C48.0702 19.4553 46.2691 20.409 44.524 21.4578C43.1177 22.7053 43.0508 22.4101 43.046 15.6824C43.046 12.4114 42.9886 9.65465 42.9264 9.55942C42.6777 9.20233 42.0942 9.14519 39.827 9.2547L37.5072 9.36897L37.335 9.8451C37.2202 10.1784 37.1628 15.7824 37.1628 27.0571C37.1628 45.1975 37.1915 44.6357 36.3305 44.6357C36.1966 44.6357 31.2891 47.302 30.6243 47.7353C30.3771 47.8832 30.1216 48.0167 29.859 48.1352C29.572 48.2686 28.955 48.6114 28.4862 48.8732C26.86 49.8255 26.9509 50.1254 26.8982 43.5882L26.8552 37.908L27.2283 37.5128C27.5056 37.2518 27.8219 37.0349 28.1658 36.8701C31.8775 35.0037 31.6287 35.3798 31.6287 31.9183C31.667 28.3474 31.6287 28.3093 29.4094 29.5377C28.8689 29.8281 27.5822 30.49 26.5395 31.0423C25.4968 31.5946 24.5784 32.1088 24.4541 32.204C24.2765 32.3388 24.0777 32.4434 23.8658 32.5135C22.965 32.8535 22.1251 33.3358 21.3786 33.9419L21.0103 34.3323V85.4541C21.0103 113.574 21.0581 136.8 21.1107 137.066C21.2494 137.747 21.2255 137.742 29.4955 137.747C33.5085 137.747 36.8949 137.814 37.0193 137.895C37.1436 137.976 37.2537 139.056 37.268 143.765C37.268 149.293 37.2967 149.479 37.6124 149.731C37.9281 149.984 42.6012 150.003 42.8738 149.731C42.9503 149.655 43.0508 146.946 43.0938 143.708L43.1751 137.823L97.1572 137.766C126.851 137.719 151.206 137.623 151.283 137.547C151.43 135.855 151.491 134.156 151.465 132.457L151.512 127.506L151.087 127.344C150.441 127.101 146.184 127.134 145.974 127.387C145.811 128.105 145.736 128.84 145.749 129.577C145.677 132.191 146.074 131.957 141.243 132.038C136.67 132.095 136.551 132.081 136.326 131.434C136.101 130.786 136.273 121.935 136.522 121.773C136.623 121.706 143.376 121.654 151.536 121.654H166.364L166.55 121.311C166.799 120.835 166.694 116.369 166.426 116.102C166.283 115.964 164.374 115.907 159.137 115.893C153.363 115.893 151.986 115.831 151.766 115.65C151.421 115.364 151.421 60.2955 151.766 59.9432C152.029 59.6813 152.244 59.7765 154.918 61.2525C156.214 61.9715 157.309 62.5571 157.333 62.5571C157.357 62.5571 158.223 63.0332 159.247 63.5808C160.27 64.1283 161.265 64.6949 161.49 64.8092C161.715 64.9235 162.193 65.1806 162.552 65.3853C162.91 65.59 163.944 66.1424 164.843 66.6137C165.742 67.0851 166.55 67.5279 166.641 67.5993C167.816 68.2801 169.024 68.9014 170.262 69.461C170.693 69.5895 170.879 69.3229 172.601 66.0376C173.409 64.5045 173.28 64.3616 169.42 62.4C169.062 62.2191 168.177 61.7382 167.459 61.3287C166.742 60.9192 165.857 60.4431 165.498 60.2622C165.139 60.0813 164.255 59.6099 163.532 59.2147L160.428 57.5149L158.955 56.715C158.505 56.4722 157.109 55.7342 155.846 55.0819C154.583 54.4296 153.229 53.7059 152.823 53.4774C151.417 52.6822 151.522 53.4774 151.517 43.8596V35.3465L151.039 34.8703C150.708 34.5789 150.342 34.3309 149.948 34.1323C149.613 33.9752 148.968 33.6229 148.513 33.3563C148.059 33.0896 146.844 32.4326 145.811 31.8993C144.778 31.366 143.788 30.8233 143.606 30.6995C143.441 30.5762 143.246 30.4975 143.041 30.4709C142.864 30.4443 142.697 30.3665 142.563 30.2471C141.946 29.8523 141.307 29.4915 140.65 29.1663C135.695 26.5619 136.345 28.1427 136.316 18.344C136.316 12.1162 136.264 10.107 136.106 9.77368C135.79 9.15471 131.069 9.04521 130.725 9.64513C130.553 9.94032 130.5 13.1304 130.462 25.2621C130.419 38.1461 130.376 40.541 130.18 40.7029C129.984 40.8648 129.271 40.6315 127.568 39.6697C127.209 39.465 126.253 38.946 125.44 38.5175C124.627 38.089 123.9 37.6747 123.809 37.6081C123.718 37.5414 122.469 36.8605 119.8 35.456C119.485 35.2893 118.935 34.9798 118.576 34.7799C116.931 33.8276 115.4 33.0039 114.649 32.6325C114.199 32.4135 113.539 32.0612 113.176 31.8565C112.812 31.6517 111.97 31.1899 111.296 30.828C110.622 30.4662 109.555 29.8758 108.928 29.5377C107.302 28.6426 105.901 27.8808 105.327 27.5904C105.059 27.457 104.604 27.2047 104.322 27.0333C104.04 26.8619 103.227 26.4096 102.524 26.0287L100.424 24.886C99.9744 24.6384 99.1996 24.2241 98.7069 23.967C98.2143 23.7099 97.1237 23.1195 96.2915 22.6577C95.4592 22.1958 94.7465 21.8197 94.7083 21.8197C94.4766 21.7082 94.2557 21.576 94.0482 21.4245C93.8131 21.2564 93.5652 21.1067 93.3068 20.9769C93.0198 20.877 93.3594 20.1532 93.7851 19.9676C95.3396 19.2724 96.7076 18.2535 96.5115 17.9345C96.0041 17.5556 95.4648 17.221 94.8996 16.9346L93.1442 15.9538C91.7332 15.1206 90.8052 14.9159 90.2743 15.3253C88.4137 16.7537 86.29 17.2298 85.1468 16.4442C84.8571 16.2331 84.5337 16.0722 84.1902 15.9681C84.0706 15.9681 83.9702 15.8967 83.9702 15.8062C83.9702 15.7157 83.8698 15.6443 83.7454 15.6443C83.5196 15.5934 83.3095 15.4889 83.1331 15.3396C82.5652 14.9775 81.9776 14.6469 81.373 14.3493C80.5237 13.9483 79.7038 13.4885 78.9192 12.9733C78.7289 12.8459 78.521 12.7465 78.3022 12.6781C77.9428 12.5355 77.5996 12.3551 77.2786 12.14L76.5899 11.7163L76.9582 11.3211C77.2327 11.0644 77.5437 10.8494 77.8813 10.6831C79.5123 9.86414 82.5209 8.30245 83.2288 7.89774C85.7543 6.46936 85.0033 6.30748 90.9966 9.47848C91.7619 9.88319 93.1203 10.5974 94.0195 11.0592C94.9187 11.5211 96.2819 12.24 97.0472 12.6495L99.6635 14.016C102.715 15.6158 104.71 16.6728 105.403 17.0441C105.805 17.2679 106.723 17.7536 107.446 18.1249C108.168 18.4963 108.976 18.9344 109.244 19.0772C109.512 19.22 110.579 19.8057 111.636 20.3437C115.252 22.2482 116.213 22.7243 119.647 24.586C120.231 24.9002 121.408 25.5382 122.264 25.962C123.12 26.3857 123.895 26.8381 123.99 26.9143C124.636 27.4332 124.88 26.6429 124.88 24.0575C124.88 20.5151 125.32 21.0531 120.217 18.344C118.576 17.4774 116.993 16.6394 115.108 15.63L112.779 14.4016C108.23 12.021 108.259 12.0877 110.569 10.8545L112.961 9.58799C113.635 9.22613 114.922 8.55003 115.83 8.08819C119.413 6.2551 119.834 5.96466 119.834 5.3457C119.834 4.86957 117.897 1.48431 117.409 1.06055L117.002 0.717743L116.194 1.16054C115.85 1.34136 115.518 1.54331 115.199 1.76522C114.999 1.90614 114.778 2.01388 114.544 2.08423C114.31 2.15712 114.088 2.26639 113.888 2.40799C113.471 2.68733 113.035 2.93712 112.583 3.15551C112.14 3.36808 111.717 3.6165 111.315 3.89827C111.146 4.03852 110.951 4.14518 110.741 4.21252C109.626 4.73716 108.548 5.33523 107.513 6.00275C107.314 6.13928 107.097 6.24523 106.867 6.317C106.368 6.52737 105.888 6.77901 105.432 7.06928C105.063 7.31579 104.67 7.52626 104.26 7.69777C104.066 7.76395 103.888 7.86749 103.734 8.00249C102.495 8.95474 102.179 8.88332 98.2717 6.72171C97.1955 6.12179 95.6505 5.29332 94.8374 4.85053C94.0243 4.40773 92.9242 3.83638 92.3885 3.54594C91.4318 3.04124 88.031 1.25101 86.9405 0.689176C86.6875 0.557672 86.4417 0.413048 86.2039 0.2559C86.0669 0.137721 85.9016 0.0567739 85.7239 0.020904C85.5463 -0.0149659 85.3623 -0.00454204 85.1899 0.0511655M88.0597 24.8526C88.6385 25.1478 89.619 25.6763 90.2504 26.0191L92.4602 27.2142L94.5121 28.2998L96.2293 29.252C96.8512 29.5561 97.4521 29.9013 98.0277 30.2852C98.2304 30.4175 98.4511 30.5201 98.683 30.59C98.9183 30.6623 99.1398 30.7734 99.3383 30.9185C99.7828 31.2146 100.246 31.4818 100.725 31.7184C101.869 32.3135 102.495 32.6706 104.652 33.8371C105.279 34.1847 106.236 34.6989 106.776 34.9846C107.317 35.2703 108.364 35.8416 109.101 36.2606C109.837 36.6796 110.483 37.0177 110.536 37.0177C110.78 37.1214 111.014 37.249 111.234 37.3986C111.573 37.6128 112.578 38.1699 113.468 38.6413C114.357 39.1126 115.357 39.6459 115.677 39.8316C115.998 40.0173 116.481 40.2744 116.754 40.4077C117.026 40.541 118.059 41.1171 119.059 41.6837C120.059 42.2503 120.92 42.7169 120.972 42.7169C121.025 42.7169 121.742 43.1026 122.56 43.5692C124.607 44.7452 126.435 45.7546 127.214 46.1403C127.573 46.3212 128.085 46.6164 128.353 46.7497C129.63 47.4877 132.523 49.0637 132.6 49.0637C132.985 49.2511 133.359 49.461 133.719 49.6922C134.169 49.979 134.641 50.2305 135.13 50.4445C135.468 50.5766 135.789 50.7476 136.087 50.9539C136.305 51.1162 136.545 51.2476 136.8 51.3443C137.122 51.4705 137.429 51.6301 137.718 51.8205C138.148 52.0728 139.311 52.7061 140.301 53.2488C141.291 53.7916 142.214 54.282 142.343 54.3915C142.725 54.6343 143.121 54.8538 143.529 55.0486C144.081 55.3243 144.601 55.6596 145.079 56.0485L145.691 56.5865L145.744 85.4445C145.797 115.155 145.792 115.569 145.318 115.779C144.845 115.988 137.307 116.064 136.771 115.84C136.235 115.617 136.254 119.788 136.293 86.3825C136.293 70.7608 136.254 57.7673 136.182 57.5149C136.053 57.0388 133.313 55.3628 131.596 54.6582C130.428 54.182 130.524 50.6682 130.543 93.015C130.543 132.753 130.572 131.881 129.845 132.057C128.864 132.305 43.4143 132.057 43.2708 131.8C43.136 130.936 43.0832 130.061 43.113 129.186C43.113 126.225 43.3234 126.425 40.2431 126.425C37.1628 126.425 37.335 126.22 37.2297 129.41L37.1484 131.862L36.6079 132C35.7996 132.205 27.3144 132.086 27.0896 131.862C26.8648 131.638 26.8504 122.016 27.1278 121.864C27.2426 121.787 49.1301 121.73 75.7433 121.73C120.092 121.73 124.186 121.702 124.531 121.464C124.952 121.168 125.009 116.598 124.617 116.193C124.493 116.064 113.042 116.012 84.1663 116.007C60.8343 116.007 43.7252 115.94 43.5099 115.855L43.1273 115.712V84.9065C43.1273 68.004 43.0843 54.0106 43.0269 53.8107C42.9073 53.3345 42.7494 53.3631 41.8215 53.8583C41.4197 54.0725 40.7645 54.4058 40.3866 54.5963C39.3495 55.0703 38.3679 55.6563 37.4593 56.3437C37.2967 56.5484 37.2537 62.7476 37.2537 86.1159C37.2537 114.079 37.2537 115.636 36.9667 115.755C36.5936 115.907 27.6109 115.907 27.2378 115.755C26.8648 115.602 26.7595 56.9769 27.1565 56.5008C28.0683 55.788 29.0545 55.1751 30.0981 54.6725C30.3899 54.5391 31.2222 54.0963 31.9396 53.6869C32.6571 53.2774 33.542 52.787 33.9677 52.5823C34.2582 52.4826 34.5228 52.32 34.7425 52.1061C34.7425 52.0395 34.9339 51.9347 35.1682 51.8776C35.526 51.7607 35.8681 51.6008 36.187 51.4015C36.9188 50.9253 38.8703 49.8874 40.9701 48.8304C41.8263 48.3971 42.8212 47.8781 43.1799 47.6496C43.5387 47.421 44.347 47.0068 44.9784 46.6973C45.6097 46.3878 47.3699 45.4308 48.9053 44.5548C50.4407 43.6787 52.2535 42.6503 52.9087 42.3027C53.564 41.9551 54.4298 41.4695 54.7885 41.2647C55.7116 40.7362 56.7735 40.1649 57.7588 39.6697C58.2508 39.4246 58.7297 39.1545 59.1937 38.8603C59.4922 38.6562 59.8131 38.4869 60.1504 38.3556C60.3773 38.2853 60.5908 38.1775 60.7817 38.0366C61.0783 37.7938 64.1921 36.1321 66.9137 34.7942C67.9946 34.2609 68.913 33.78 68.9608 33.7324C69.7706 33.2205 70.6162 32.767 71.4911 32.3754C72.2133 32.0136 73.17 31.4755 73.6196 31.1851C74.013 30.9183 74.439 30.7023 74.8871 30.5423C75.1358 30.4804 75.3367 30.3757 75.3367 30.309C75.3367 30.2424 75.6141 30.071 75.9489 29.9281C76.3857 29.7322 76.8092 29.508 77.2165 29.2568C77.5752 29.033 78.4601 28.5474 79.1775 28.176C79.895 27.8046 80.7799 27.3237 81.1434 27.1142C81.5069 26.9047 82.1 26.5762 82.4492 26.3905C83.3798 25.9428 84.2794 25.4338 85.1421 24.8669C86.2661 24.1337 86.7635 24.1241 88.1076 24.8241M137.603 34.1514C137.828 34.2799 138.416 34.5942 138.909 34.8465C142.257 36.5892 144.701 37.9223 145.294 38.3508L145.696 38.6365L145.749 43.3978C145.82 49.9159 145.878 49.7922 143.324 48.3257C142.74 47.9924 141.784 47.4639 141.2 47.1544C140.616 46.8449 139.913 46.464 139.645 46.3164L137.885 45.3356C137.358 45.0759 136.874 44.7371 136.45 44.331C136.192 43.8549 136.235 34.1276 136.493 34.0228C136.674 33.9521 136.87 33.9273 137.063 33.9506C137.256 33.9739 137.44 34.0445 137.598 34.1561M83.2288 49.7255C82.5036 49.8112 81.7847 49.9432 81.0764 50.1207C80.7037 50.2356 80.321 50.3153 79.9333 50.3587C78.5796 50.3587 72.8878 52.8394 70.8215 54.3487C68.5543 56.0009 65.7896 58.5815 64.8091 59.967L63.5224 61.7572C60.5856 65.7995 59.165 70.9322 59.2176 77.3028C59.2463 80.2643 59.2942 80.8737 59.5955 81.8593C59.7868 82.4878 60.0356 83.44 60.1504 83.9733C60.2369 84.418 60.3617 84.8545 60.5234 85.2779C60.6437 85.5378 60.732 85.8111 60.7865 86.0921C60.9396 86.8825 62.6424 90.1725 63.312 90.9771C63.3837 91.0628 63.642 91.4533 63.8812 91.8818C64.9239 93.6625 70.3527 98.8713 71.1658 98.8713C71.3446 98.9327 71.501 99.0453 71.6154 99.1951C71.7243 99.3384 71.8696 99.4501 72.0364 99.5189C72.1033 99.5189 72.993 99.9188 74.0118 100.404C76.4033 101.552 77.9052 102.114 79.2158 102.361C79.8041 102.471 80.5359 102.642 80.8516 102.737C82.9801 103.409 90.5422 103.385 92.8094 102.704C93.2159 102.585 93.8042 102.433 94.1199 102.371C95.3769 102.068 96.6046 101.655 97.7886 101.138C97.8943 101.047 98.0271 100.993 98.1664 100.985C99.1701 100.612 100.141 100.156 101.07 99.6236C102.355 98.8354 103.583 97.9605 104.748 97.0049C105.332 96.5288 106.145 95.8289 106.556 95.4956C107.412 94.7909 108.407 93.5911 108.579 93.0531C108.675 92.7436 108.364 92.3627 106.508 90.501C103.605 87.5824 103.844 87.6442 101.945 89.4821C100.494 90.8945 98.8901 92.1417 97.162 93.2007C93.4838 95.1385 89.509 96.0812 86.0174 95.8384C84.4437 95.7289 80.9616 95.0766 80.6507 94.829C80.4598 94.714 80.2514 94.6304 80.0337 94.5814C79.0532 94.2264 78.1031 93.7933 77.1925 93.2864C75.9783 92.5554 74.8724 91.6596 73.9066 90.6248C69.6735 86.473 67.7842 82.1212 67.7842 76.5314C67.7842 74.984 68.3055 71.4226 68.6691 70.4656C68.7949 70.1441 68.88 69.8082 68.9226 69.4657C68.9354 69.2581 69.0259 69.0628 69.1761 68.9182C69.3013 68.823 69.3879 68.6861 69.42 68.5325C69.42 68.104 70.7019 65.7662 71.4863 64.7663C78.8762 55.3343 93.2351 54.7677 101.926 63.5427C102.591 64.214 103.193 64.6902 103.361 64.6616C103.94 64.5378 108.201 60.086 108.201 59.6099C108.201 58.8529 104.7 55.4962 102.624 54.2677C102.319 54.0954 102.028 53.8996 101.754 53.6821C101.151 53.1012 97.7503 51.4681 96.3441 51.0777C95.9552 50.9753 95.5734 50.848 95.2009 50.6968C94.8027 50.5471 94.3911 50.4355 93.9717 50.3635C93.4933 50.2683 92.5941 50.0826 92.0106 49.9445C90.7048 49.6398 85.1468 49.497 83.2623 49.7255M13.0129 57.2769C12.0563 57.753 11.1571 58.2577 10.9657 58.3815C10.671 58.553 10.3582 58.6919 10.033 58.7957C9.70471 58.9026 9.40305 59.0779 9.14816 59.3099C9.02542 59.4626 8.85842 59.574 8.66985 59.6289C8.48005 59.6864 8.3129 59.8012 8.19154 59.9575C8.06688 60.1091 7.90075 60.2216 7.71323 60.2812C7.59366 60.2812 4.36507 62.0143 3.17886 62.719C3.04493 62.7999 2.32268 63.1951 1.57173 63.5427C0.0172271 64.3188 -0.231494 64.6711 0.170286 65.5234C0.572067 66.3757 0.892534 67.0184 1.05994 67.2803C1.14604 67.4136 1.3565 67.7564 1.53825 68.0945C1.7554 68.4658 2.01898 68.8081 2.32268 69.1134L2.80099 69.5562L5.32168 68.1707C6.71357 67.4089 7.95717 66.7185 8.09588 66.6328C8.23459 66.5471 8.64116 66.3376 9.01424 66.1566C9.55212 65.8885 10.0758 65.5929 10.5831 65.271C11.0003 64.9915 11.448 64.7599 11.9176 64.5807C12.0919 64.5483 12.2559 64.4748 12.3959 64.3664C12.8181 64.0791 13.2627 63.8259 13.7256 63.6094C15.5001 62.7047 15.5145 62.6571 15.5049 59.6385C15.5049 55.9532 15.5049 55.9723 12.9938 57.2578M6.34527 115.945C4.97876 115.936 3.61297 116.011 2.25572 116.169C1.88264 116.54 1.99743 121.111 2.38964 121.406C3.02101 121.844 14.7874 121.797 15.194 121.354C15.5145 120.997 15.524 116.469 15.194 116.15C14.9788 115.936 11.2479 115.86 6.3357 115.964M130.83 143.613C130.601 143.87 130.562 144.341 130.562 146.794V149.674L130.978 149.831C131.639 150.084 135.508 150.036 135.867 149.774C136.374 149.407 136.469 144.156 135.977 143.665C135.484 143.175 131.27 143.132 130.83 143.613Z" fill="#E7B41F"/>
</svg>
