<svg width="26" height="26" fill="none" xmlns="http://www.w3.org/2000/svg">
    <path d="M11.324 0C5.074 0 0 5.073 0 11.324c0 6.25 5.073 11.324 11.324 11.324 6.25 0 11.324-5.073 11.324-11.324C22.648 5.074 17.575 0 11.324 0Zm0 19.629c-4.59 0-8.304-3.745-8.304-8.304 0-4.56 3.714-8.304 8.304-8.304a8.3 8.3 0 0 1 8.304 8.304c0 4.59-3.745 8.304-8.304 8.304ZM22.346 20.202a1.495 1.495 0 0 0-2.144 0 1.495 1.495 0 0 0 0 2.144l3.201 3.2c.302.303.695.454 1.057.454s.785-.15 1.057-.453a1.495 1.495 0 0 0 0-2.144l-3.17-3.201Z" fill="#000"/>
</svg>
