<svg width="25" height="25" fill="none" xmlns="http://www.w3.org/2000/svg">
    <path d="M11.059 2.96a8.002 8.002 0 0 1 7.934 6.964l2.25 3.54c.148.232.117.58-.226.727l-1.959.838v2.93a2 2 0 0 1-2 2H15.06l-.002 3h-9v-3.694c0-1.18-.436-2.297-1.244-3.305A8 8 0 0 1 11.058 2.96Zm0 2a6 6 0 0 0-4.685 9.75c1.094 1.363 1.684 2.916 1.684 4.555v1.694h5l.002-3h3.998v-4.248l1.55-.664-1.543-2.425-.056-.442a6.001 6.001 0 0 0-5.95-5.22Zm-.53 3.762.53.53.53-.53a1.75 1.75 0 1 1 2.474 2.474l-3.005 3.006-3.005-3.006a1.75 1.75 0 1 1 2.475-2.474Z" fill="#000"/>
</svg>
