<svg width="21" height="24" viewBox="0 0 21 24" fill="none" xmlns="http://www.w3.org/2000/svg">
<path d="M21 17.6086C20.4272 18.8579 20.1512 19.4163 19.4145 20.5189C18.383 22.0596 16.9282 23.9835 15.131 23.9957C13.5309 24.01 13.1179 22.9706 10.9451 22.9889C8.7743 22.9991 8.32188 24.0161 6.71974 23.9998C4.92044 23.9835 3.5445 22.2512 2.51307 20.7125C-0.371622 16.398 -0.676694 11.3396 1.106 8.64939C2.3678 6.74179 4.36218 5.62088 6.23619 5.62088C8.14548 5.62088 9.34502 6.65008 10.9223 6.65008C12.4538 6.65008 13.3857 5.61884 15.5938 5.61884C17.2624 5.61884 19.0264 6.5115 20.2882 8.05225C16.1624 10.2737 16.8328 16.0597 21 17.6086ZM13.9169 3.89671C14.7201 2.88381 15.3302 1.45515 15.1082 0C13.7986 0.0876353 12.2671 0.90896 11.3726 1.97281C10.5612 2.94291 9.88875 4.38176 10.1502 5.77373C11.5801 5.81857 13.0598 4.98094 13.9169 3.89671Z" fill="black"/>
</svg>
